<svg xmlns="http://www.w3.org/2000/svg" version="1.1" xmlns:xlink="http://www.w3.org/1999/xlink"
    xmlns:svgjs="http://svgjs.dev/svgjs" width="1500" height="715" viewBox="0 0 1500 715">
    <g transform="matrix(1,0,0,1,-0.9107312942589942,0.5601268363400891)">
        <svg viewBox="0 0 396 189" data-background-color="#000000"
            preserveAspectRatio="xMidYMid meet" height="715" width="1500"
            xmlns="http://www.w3.org/2000/svg" xmlns:xlink="http://www.w3.org/1999/xlink">
            <g id="tight-bounds"
                transform="matrix(1,0,0,1,0.24043306168437084,-0.14806149939619218)">
                <svg viewBox="0 0 395.52 189.29612299879238" height="189.29612299879238"
                    width="395.52">
                    <g>
                        <svg viewBox="0 0 395.52 189.29612299879238" height="189.29612299879238"
                            width="395.52">
                            <g>
                                <svg viewBox="0 0 395.52 189.29612299879238"
                                    height="189.29612299879238" width="395.52">
                                    <g id="textblocktransform">
                                        <svg viewBox="0 0 395.52 189.29612299879238"
                                            height="189.29612299879238" width="395.52"
                                            id="textblock">
                                            <g>
                                                <svg viewBox="0 0 395.52 84.42274010818845"
                                                    height="84.42274010818845" width="395.52">
                                                    <g transform="matrix(1,0,0,1,0,0)">
                                                        <svg width="395.52"
                                                            viewBox="2.83 -33.750322259343996 160.23 34.2110128670788"
                                                            height="84.42274010818845"
                                                            data-palette-color="#ffffff">
                                                            <path
                                                                d="M18.81-30.28L18.81-30.28Q13.32-30.28 10.15-26.62 6.98-22.95 6.98-16.52 6.98-10.09 10.04-6.53 13.09-2.98 18.76-2.98L18.76-2.98Q22.3-2.98 26.72-4.22L26.72-4.22 26.72-0.83Q23.26 0.46 18.17 0.46L18.17 0.46Q10.82 0.46 6.83-3.99L6.83-3.99Q2.83-8.49 2.83-16.68L2.83-16.68Q2.81-20.48 3.93-23.67 5.06-26.87 7.13-29.1 9.2-31.32 12.21-32.55 15.22-33.77 18.86-33.75L18.86-33.75Q24.14-33.75 28.01-31.83L28.01-31.83 26.37-28.51Q22.65-30.28 18.81-30.28ZM36.42-3.51L53.54-3.51 53.54 0 31.67 0 31.67-3.26 40.42-12.06Q44.49-16.15 45.7-17.82L45.7-17.82Q48.25-21.28 48.25-24.72L48.25-24.72Q48.25-27.4 46.64-28.96 45.02-30.51 42.16-30.51L42.16-30.51Q40.06-30.51 38.24-29.84 36.42-29.17 34.1-27.35L34.1-27.35 32.1-29.9Q36.7-33.75 42.11-33.75L42.11-33.75Q46.76-33.75 49.44-31.36 52.12-28.97 52.12-24.9L52.12-24.9Q52.12-21.69 50.31-18.57 48.51-15.44 43.7-10.79L43.7-10.79 36.42-3.69 36.42-3.51ZM62.61-3.51L80.76-3.51 80.76 0 57.91 0 57.91-3.03 75.55-29.78 58.44-29.78 58.44-33.27 80.25-33.27 80.25-30.23 62.61-3.51ZM88.3-21.99Q91.37-25.38 96.68-25.38 101.99-25.38 105.07-21.9 108.16-18.43 108.16-12.42 108.16-6.42 105.07-2.96L105.07-2.96Q101.99 0.46 96.61 0.46L96.61 0.46Q91.52 0.51 88.34-3.06 85.15-6.62 85.23-12.49L85.23-12.49Q85.23-18.6 88.3-21.99ZM96.63-22.17L96.63-22.17Q89.15-22.17 89.15-12.49L89.15-12.49Q89.15-7.71 91.06-5.21 92.97-2.7 96.68-2.7 100.4-2.7 102.32-5.19 104.24-7.68 104.24-12.47 104.24-17.26 102.32-19.72 100.4-22.17 96.63-22.17ZM135.61-16.25L135.61 0 131.82 0 131.82-16.13Q131.82-19.21 130.42-20.69 129.03-22.17 126.1-22.17L126.1-22.17Q122.18-22.17 120.36-20.06 118.54-17.95 118.54-13.07L118.54-13.07 118.54 0 114.75 0 114.75-24.92 117.84-24.92 118.44-21.51 118.62-21.51Q119.78-23.33 121.88-24.36 123.98-25.38 126.56-25.38L126.56-25.38Q131.11-25.38 133.36-23.18 135.61-20.98 135.61-16.25L135.61-16.25ZM153.88 0.46L153.88 0.46Q148.34 0.46 145.13-2.91L145.13-2.91Q141.95-6.27 141.95-12.29 141.95-18.3 144.91-21.84L144.91-21.84Q147.91-25.38 152.76-25.38 157.6-25.38 160.33-22.3 163.06-19.21 163.06-14.18L163.06-14.18 163.06-11.78 145.87-11.78Q145.99-7.41 148.09-5.12 150.19-2.83 154.15-2.83 158.1-2.83 161.97-4.52L161.97-4.52 161.97-1.16Q160.02-0.3 158.2 0.08 156.38 0.46 153.88 0.46ZM145.97-14.86L159.01-14.86Q159.01-18.43 157.42-20.32 155.83-22.22 152.86-22.22 149.89-22.22 148.08-20.27 146.27-18.33 145.97-14.86L145.97-14.86Z"
                                                                opacity="1"
                                                                transform="matrix(1,0,0,1,0,0)"
                                                                fill="#ffffff"
                                                                class="wordmark-text-0"
                                                                data-fill-palette-color="primary"
                                                                id="text-0"></path>
                                                        </svg>
                                                    </g>
                                                </svg>
                                            </g>
                                            <g transform="matrix(1,0,0,1,0,124.28310569574984)">
                                                <svg viewBox="0 0 395.52 65.01301730304256"
                                                    height="65.01301730304256" width="395.52">
                                                    <path d="M395.52 0l-10.835 32.507 10.835 32.506h-395.52l10.835-32.506-10.835-32.507z" data-fill-palette-color="tertiary" opacity="1" fill="#ffffff"></path>
                                                    <g
                                                        transform="matrix(1,0,0,1,75.54432,19.9301827937807)">
                                                        <svg width="244.43135999999998"
                                                            viewBox="1.95 -38.85 382.36 39.35"
                                                            height="25.152651715481166"
                                                            data-palette-color="#000000">
                                                            <path
                                                                d="M29.05-7.55L31.35-2.6Q30.75-2.15 29.68-1.63 28.6-1.1 27.15-0.65 25.7-0.2 23.93 0.1 22.15 0.4 20.15 0.4L20.15 0.4Q15.9 0.4 12.53-1.07 9.15-2.55 6.8-5.05 4.45-7.55 3.2-10.85 1.95-14.15 1.95-17.85L1.95-17.85Q1.95-21.95 3.43-25.4 4.9-28.85 7.45-31.35 10-33.85 13.43-35.25 16.85-36.65 20.7-36.65L20.7-36.65Q22.15-36.65 23.65-36.45 25.15-36.25 26.48-35.9 27.8-35.55 28.83-35.08 29.85-34.6 30.4-34.1L30.4-34.1Q30-33.5 29.78-33.1 29.55-32.7 29.3-32.27 29.05-31.85 28.75-31.3 28.45-30.75 27.95-29.85L27.95-29.85Q27.3-30.3 26.43-30.6 25.55-30.9 24.6-31.1 23.65-31.3 22.68-31.4 21.7-31.5 20.9-31.5L20.9-31.5Q18-31.5 15.53-30.43 13.05-29.35 11.25-27.53 9.45-25.7 8.43-23.3 7.4-20.9 7.4-18.3L7.4-18.3Q7.4-15.75 8.38-13.4 9.35-11.05 11.08-9.2 12.8-7.35 15.23-6.25 17.65-5.15 20.55-5.15L20.55-5.15Q22.1-5.15 23.55-5.45 25-5.75 26.18-6.15 27.35-6.55 28.13-6.95 28.9-7.35 29.05-7.55L29.05-7.55ZM32.9-10.5L32.9-10.5Q32.9-12.75 33.77-14.75 34.65-16.75 36.15-18.23 37.65-19.7 39.67-20.58 41.7-21.45 44.05-21.45L44.05-21.45Q46.4-21.45 48.42-20.58 50.45-19.7 51.92-18.23 53.4-16.75 54.22-14.75 55.05-12.75 55.05-10.5L55.05-10.5Q55.05-8.25 54.22-6.25 53.4-4.25 51.92-2.75 50.45-1.25 48.42-0.38 46.4 0.5 44 0.5L44 0.5Q41.7 0.5 39.67-0.3 37.65-1.1 36.15-2.55 34.65-4 33.77-6.03 32.9-8.05 32.9-10.5ZM37.15-10.45L37.15-10.45Q37.15-9.05 37.67-7.83 38.2-6.6 39.12-5.68 40.05-4.75 41.27-4.23 42.5-3.7 43.9-3.7L43.9-3.7Q45.3-3.7 46.55-4.23 47.8-4.75 48.72-5.68 49.65-6.6 50.2-7.83 50.75-9.05 50.75-10.45L50.75-10.45Q50.75-11.85 50.2-13.1 49.65-14.35 48.72-15.28 47.8-16.2 46.55-16.73 45.3-17.25 43.9-17.25L43.9-17.25Q42.5-17.25 41.27-16.73 40.05-16.2 39.12-15.28 38.2-14.35 37.67-13.1 37.15-11.85 37.15-10.45ZM58.2-10.45L58.2-10.45Q58.2-12.9 59.02-14.93 59.84-16.95 61.3-18.4 62.74-19.85 64.72-20.65 66.69-21.45 69-21.45L69-21.45Q70.55-21.45 71.77-21.08 73-20.7 73.87-20.18 74.75-19.65 75.34-19 75.94-18.35 76.25-17.85L76.25-17.85 76.25-38.85 80.55-38.85 80.55 0 76.25 0 76.25-1.55Q76.25-1.85 76.3-2.23 76.34-2.6 76.34-2.85L76.34-2.85Q75.84-2.25 75.17-1.68 74.5-1.1 73.59-0.6 72.69-0.1 71.52 0.2 70.34 0.5 68.84 0.5L68.84 0.5Q66.34 0.5 64.37-0.38 62.39-1.25 61.02-2.73 59.64-4.2 58.92-6.2 58.2-8.2 58.2-10.45ZM62.49-10.5L62.49-10.5Q62.49-9.05 63.02-7.8 63.55-6.55 64.44-5.65 65.34-4.75 66.59-4.23 67.84-3.7 69.34-3.7L69.34-3.7Q70.84-3.7 72.12-4.23 73.39-4.75 74.32-5.68 75.25-6.6 75.75-7.83 76.25-9.05 76.25-10.5L76.25-10.5Q76.25-11.95 75.75-13.18 75.25-14.4 74.32-15.3 73.39-16.2 72.12-16.73 70.84-17.25 69.34-17.25L69.34-17.25Q67.84-17.25 66.59-16.73 65.34-16.2 64.44-15.3 63.55-14.4 63.02-13.18 62.49-11.95 62.49-10.5ZM101.04-5.55L104.24-2.45Q102.74-1.1 100.59-0.3 98.44 0.5 96.19 0.5L96.19 0.5Q93.89 0.5 91.87-0.38 89.84-1.25 88.34-2.73 86.84-4.2 85.97-6.2 85.09-8.2 85.09-10.45L85.09-10.45Q85.09-12.7 85.97-14.7 86.84-16.7 88.34-18.2 89.84-19.7 91.82-20.58 93.79-21.45 96.04-21.45L96.04-21.45Q99.59-21.45 102.22-19.33 104.84-17.2 105.99-13.75L105.99-13.75Q104.44-13.2 102.44-12.4 100.44-11.6 98.29-10.73 96.14-9.85 93.99-9 91.84-8.15 89.99-7.45L89.99-7.45Q90.84-5.75 92.47-4.73 94.09-3.7 96.09-3.7L96.09-3.7Q97.44-3.7 98.82-4.2 100.19-4.7 101.04-5.55L101.04-5.55ZM100.64-14.75L100.64-14.75Q100.04-16 98.74-16.63 97.44-17.25 96.09-17.25L96.09-17.25Q94.64-17.25 93.42-16.7 92.19-16.15 91.29-15.23 90.39-14.3 89.87-13.1 89.34-11.9 89.34-10.65L89.34-10.65Q89.34-10.4 89.37-10.3 89.39-10.2 89.39-10.15L89.39-10.15Q90.69-10.65 92.22-11.28 93.74-11.9 95.24-12.53 96.74-13.15 98.14-13.73 99.54-14.3 100.64-14.75ZM142.24-7.55L144.54-2.6Q143.94-2.15 142.86-1.63 141.79-1.1 140.34-0.65 138.89-0.2 137.11 0.1 135.34 0.4 133.34 0.4L133.34 0.4Q129.09 0.4 125.71-1.07 122.34-2.55 119.99-5.05 117.64-7.55 116.39-10.85 115.14-14.15 115.14-17.85L115.14-17.85Q115.14-21.95 116.61-25.4 118.09-28.85 120.64-31.35 123.19-33.85 126.61-35.25 130.04-36.65 133.89-36.65L133.89-36.65Q135.34-36.65 136.84-36.45 138.34-36.25 139.66-35.9 140.99-35.55 142.01-35.08 143.04-34.6 143.59-34.1L143.59-34.1Q143.19-33.5 142.96-33.1 142.74-32.7 142.49-32.27 142.24-31.85 141.94-31.3 141.64-30.75 141.14-29.85L141.14-29.85Q140.49-30.3 139.61-30.6 138.74-30.9 137.79-31.1 136.84-31.3 135.86-31.4 134.89-31.5 134.09-31.5L134.09-31.5Q131.19-31.5 128.71-30.43 126.24-29.35 124.44-27.53 122.64-25.7 121.61-23.3 120.59-20.9 120.59-18.3L120.59-18.3Q120.59-15.75 121.56-13.4 122.54-11.05 124.26-9.2 125.99-7.35 128.41-6.25 130.84-5.15 133.74-5.15L133.74-5.15Q135.29-5.15 136.74-5.45 138.19-5.75 139.36-6.15 140.54-6.55 141.31-6.95 142.09-7.35 142.24-7.55L142.24-7.55ZM160.28-21.45L159.34-15.95Q157.94-15.95 156.64-15.58 155.34-15.2 154.31-14.45 153.28-13.7 152.69-12.58 152.09-11.45 152.09-10L152.09-10 152.09 0 147.84 0 147.84-20.9 151.59-20.9Q151.69-19.35 151.76-18.07 151.84-16.8 151.94-15.55L151.94-15.55Q152.59-16.9 153.64-18 154.69-19.1 155.89-19.85 157.09-20.6 158.24-21.03 159.39-21.45 160.28-21.45L160.28-21.45ZM161.53-10.25L161.53-10.25Q161.53-12.55 162.41-14.58 163.28-16.6 164.78-18.13 166.28-19.65 168.26-20.55 170.23-21.45 172.48-21.45L172.48-21.45Q173.98-21.45 175.23-21.08 176.48-20.7 177.38-20.15 178.28-19.6 178.83-19 179.38-18.4 179.58-17.95L179.58-17.95 179.78-20.9 183.88-20.9 183.88 0 179.58 0 179.58-2.65Q179.33-2.25 178.78-1.7 178.23-1.15 177.36-0.68 176.48-0.2 175.28 0.15 174.08 0.5 172.53 0.5L172.53 0.5Q170.13 0.5 168.11-0.38 166.08-1.25 164.63-2.73 163.18-4.2 162.36-6.15 161.53-8.1 161.53-10.25ZM165.83-10.5L165.83-10.5Q165.83-9.05 166.36-7.8 166.88-6.55 167.78-5.65 168.68-4.75 169.93-4.23 171.18-3.7 172.68-3.7L172.68-3.7Q174.18-3.7 175.46-4.23 176.73-4.75 177.66-5.68 178.58-6.6 179.08-7.83 179.58-9.05 179.58-10.5L179.58-10.5Q179.58-11.95 179.08-13.18 178.58-14.4 177.66-15.3 176.73-16.2 175.46-16.73 174.18-17.25 172.68-17.25L172.68-17.25Q171.18-17.25 169.93-16.73 168.68-16.2 167.78-15.3 166.88-14.4 166.36-13.18 165.83-11.95 165.83-10.5ZM191.63-16.75L188.08-16.75 188.08-20.95 191.63-20.95 191.63-25.8Q191.63-32.35 194.71-35.52 197.78-38.7 203.43-38.85L203.43-38.85 203.43-34.75Q199.53-34.55 197.73-32.25 195.93-29.95 195.93-25.7L195.93-25.7 195.93-20.95 202.53-20.95 202.53-16.75 195.93-16.75 195.93 0 191.63 0 191.63-16.75ZM207.78-20.85L207.78-30.1 212.03-30.1 212.03-20.85 217.63-20.85 217.63-17.05 212.03-17.05 212.03 0 207.78 0 207.78-17.05 204.03-17.05 204.03-20.85 207.78-20.85ZM235.23-5.55L238.43-2.45Q236.93-1.1 234.78-0.3 232.63 0.5 230.38 0.5L230.38 0.5Q228.08 0.5 226.05-0.38 224.03-1.25 222.53-2.73 221.03-4.2 220.15-6.2 219.28-8.2 219.28-10.45L219.28-10.45Q219.28-12.7 220.15-14.7 221.03-16.7 222.53-18.2 224.03-19.7 226-20.58 227.98-21.45 230.23-21.45L230.23-21.45Q233.78-21.45 236.4-19.33 239.03-17.2 240.18-13.75L240.18-13.75Q238.63-13.2 236.63-12.4 234.63-11.6 232.48-10.73 230.33-9.85 228.18-9 226.03-8.15 224.18-7.45L224.18-7.45Q225.03-5.75 226.65-4.73 228.28-3.7 230.28-3.7L230.28-3.7Q231.63-3.7 233-4.2 234.38-4.7 235.23-5.55L235.23-5.55ZM234.83-14.75L234.83-14.75Q234.23-16 232.93-16.63 231.63-17.25 230.28-17.25L230.28-17.25Q228.83-17.25 227.6-16.7 226.38-16.15 225.48-15.23 224.58-14.3 224.05-13.1 223.53-11.9 223.53-10.65L223.53-10.65Q223.53-10.4 223.55-10.3 223.58-10.2 223.58-10.15L223.58-10.15Q224.88-10.65 226.4-11.28 227.93-11.9 229.43-12.53 230.93-13.15 232.33-13.73 233.73-14.3 234.83-14.75ZM256.32-21.45L255.37-15.95Q253.97-15.95 252.67-15.58 251.37-15.2 250.35-14.45 249.32-13.7 248.72-12.58 248.12-11.45 248.12-10L248.12-10 248.12 0 243.87 0 243.87-20.9 247.62-20.9Q247.72-19.35 247.8-18.07 247.87-16.8 247.97-15.55L247.97-15.55Q248.62-16.9 249.67-18 250.72-19.1 251.92-19.85 253.12-20.6 254.27-21.03 255.42-21.45 256.32-21.45L256.32-21.45ZM271.07-19.05L271.07-19.05 268.82-16.05Q268.77-16.1 268.47-16.3 268.17-16.5 267.69-16.7 267.22-16.9 266.6-17.07 265.97-17.25 265.32-17.25L265.32-17.25Q264.47-17.25 263.65-16.85 262.82-16.45 262.82-15.35L262.82-15.35Q262.82-14.4 263.5-13.8 264.17-13.2 265.17-12.73 266.17-12.25 267.35-11.75 268.52-11.25 269.52-10.53 270.52-9.8 271.19-8.72 271.87-7.65 271.87-6L271.87-6Q271.87-3.2 269.94-1.38 268.02 0.45 264.67 0.45L264.67 0.45Q262.72 0.45 260.85-0.23 258.97-0.9 257.82-2.2L257.82-2.2Q258.17-2.55 258.6-3.1 259.02-3.65 259.44-4.15 259.87-4.65 260.15-4.98 260.42-5.3 260.47-5.3L260.47-5.3Q260.47-5.25 260.85-5 261.22-4.75 261.82-4.48 262.42-4.2 263.17-3.98 263.92-3.75 264.67-3.75L264.67-3.75Q265.87-3.75 266.72-4.35 267.57-4.95 267.57-5.95L267.57-5.95Q267.57-6.85 266.9-7.38 266.22-7.9 265.22-8.35 264.22-8.8 263.02-9.28 261.82-9.75 260.82-10.5 259.82-11.25 259.15-12.38 258.47-13.5 258.47-15.3L258.47-15.3Q258.47-17 259.1-18.15 259.72-19.3 260.69-20.03 261.67-20.75 262.87-21.08 264.07-21.4 265.17-21.4L265.17-21.4Q266.62-21.4 268.27-20.8 269.92-20.2 271.07-19.05ZM288.62-36.25L288.62-36.25 310.06-36.25 289.47-5.25 310.52-5.25 310.52 0 279.97 0Q280.47-0.65 281.52-2.25 282.56-3.85 283.97-6.03 285.37-8.2 287.04-10.8 288.72-13.4 290.47-16.07 292.22-18.75 293.89-21.35 295.56-23.95 296.97-26.1 298.37-28.25 299.42-29.8 300.47-31.35 300.97-32L300.97-32 286.47-32Q285.67-32 284.89-32.23 284.12-32.45 283.52-32.85 282.92-33.25 282.54-33.85 282.17-34.45 282.17-35.2L282.17-35.2 282.17-38.1 287.06-38.1 287.06-37.4Q287.06-36.5 287.42-36.38 287.77-36.25 288.62-36.25ZM312.71-10.5L312.71-10.5Q312.71-12.75 313.59-14.75 314.46-16.75 315.96-18.23 317.46-19.7 319.49-20.58 321.51-21.45 323.86-21.45L323.86-21.45Q326.21-21.45 328.24-20.58 330.26-19.7 331.74-18.23 333.21-16.75 334.04-14.75 334.86-12.75 334.86-10.5L334.86-10.5Q334.86-8.25 334.04-6.25 333.21-4.25 331.74-2.75 330.26-1.25 328.24-0.38 326.21 0.5 323.81 0.5L323.81 0.5Q321.51 0.5 319.49-0.3 317.46-1.1 315.96-2.55 314.46-4 313.59-6.03 312.71-8.05 312.71-10.5ZM316.96-10.45L316.96-10.45Q316.96-9.05 317.49-7.83 318.01-6.6 318.94-5.68 319.86-4.75 321.09-4.23 322.31-3.7 323.71-3.7L323.71-3.7Q325.11-3.7 326.36-4.23 327.61-4.75 328.54-5.68 329.46-6.6 330.01-7.83 330.56-9.05 330.56-10.45L330.56-10.45Q330.56-11.85 330.01-13.1 329.46-14.35 328.54-15.28 327.61-16.2 326.36-16.73 325.11-17.25 323.71-17.25L323.71-17.25Q322.31-17.25 321.09-16.73 319.86-16.2 318.94-15.28 318.01-14.35 317.49-13.1 316.96-11.85 316.96-10.45ZM339.41 0L339.41-20.9 343.16-20.9Q343.26-19.35 343.34-18.07 343.41-16.8 343.51-15.55L343.51-15.55Q344.66-18.25 346.79-19.85 348.91-21.45 352.01-21.45L352.01-21.45Q355.16-21.45 357.06-19.7 358.96-17.95 359.06-15.2L359.06-15.2 359.06 0 354.76 0 354.76-13.25Q354.66-14.85 353.66-15.98 352.66-17.1 350.51-17.2L350.51-17.2Q349.01-17.2 347.76-16.68 346.51-16.15 345.61-15.25 344.71-14.35 344.19-13.1 343.66-11.85 343.66-10.35L343.66-10.35 343.66 0 339.41 0ZM379.36-5.55L382.56-2.45Q381.06-1.1 378.91-0.3 376.76 0.5 374.51 0.5L374.51 0.5Q372.21 0.5 370.18-0.38 368.16-1.25 366.66-2.73 365.16-4.2 364.28-6.2 363.41-8.2 363.41-10.45L363.41-10.45Q363.41-12.7 364.28-14.7 365.16-16.7 366.66-18.2 368.16-19.7 370.13-20.58 372.11-21.45 374.36-21.45L374.36-21.45Q377.91-21.45 380.53-19.33 383.16-17.2 384.31-13.75L384.31-13.75Q382.76-13.2 380.76-12.4 378.76-11.6 376.61-10.73 374.46-9.85 372.31-9 370.16-8.15 368.31-7.45L368.31-7.45Q369.16-5.75 370.78-4.73 372.41-3.7 374.41-3.7L374.41-3.7Q375.76-3.7 377.13-4.2 378.51-4.7 379.36-5.55L379.36-5.55ZM378.96-14.75L378.96-14.75Q378.36-16 377.06-16.63 375.76-17.25 374.41-17.25L374.41-17.25Q372.96-17.25 371.73-16.7 370.51-16.15 369.61-15.23 368.71-14.3 368.18-13.1 367.66-11.9 367.66-10.65L367.66-10.65Q367.66-10.4 367.68-10.3 367.71-10.2 367.71-10.15L367.71-10.15Q369.01-10.65 370.53-11.28 372.06-11.9 373.56-12.53 375.06-13.15 376.46-13.73 377.86-14.3 378.96-14.75Z"
                                                                opacity="1"
                                                                transform="matrix(1,0,0,1,0,0)"
                                                                fill="#000000" class="slogan-text-1"
                                                                data-fill-palette-color="quaternary"
                                                                id="text-1"></path>
                                                        </svg>
                                                    </g>
                                                </svg>
                                            </g>
                                        </svg>
                                    </g>
                                </svg>
                            </g>
                        </svg>
                    </g>
                    <defs></defs>
                </svg>
                <rect width="395.52" height="189.29612299879238" fill="none" stroke="none"
                    visibility="hidden"></rect>
            </g>
        </svg>
    </g>
</svg>